<svg width="400" height="500" viewBox="0 0 400 500" fill="none" xmlns="http://www.w3.org/2000/svg">
<g clip-path="url(#clip0)">
<rect width="400" height="500" fill="white"/>
<path d="M257.845 454.801C258.332 461.36 317.771 499.65 347.429 517.975L387.562 508.399C402.111 501.5 432.893 486.755 439.629 482.958C448.049 478.213 479.874 456.466 504.391 435.392C528.908 414.319 492.981 392.868 462.54 374.8C432.099 356.733 419.369 372.036 420.674 388.981C421.979 405.926 393.674 412.188 368.192 394.219C342.711 376.25 314.407 349.492 290.898 346.025C267.389 342.558 263.471 357.762 263.588 369.499C263.704 381.236 328.468 428.363 348.363 451.134C368.258 473.905 325.257 476.602 298.364 454.238C271.472 431.875 257.237 446.602 257.845 454.801Z" fill="#FDF6DD"/>
<path d="M56.0063 404.308C24.3163 381.514 -12.8632 390.501 -27.4908 397.843L-35.4054 435.633L-4.81169 501.963L64.9611 525.805L155.154 505.533C152.912 492.186 146.252 462.633 137.558 451.19C134.883 441.352 106.337 429.517 92.3982 424.829C92.3982 424.829 73.1281 419.649 56.0063 404.308Z" fill="#B68BEE"/>
<path d="M155.479 80.199C192.327 30.608 155.885 -11.0728 133.06 -25.7135L45.2995 -18.0174L-89.1147 50.3283L-111.499 147.348L-26.5058 249.167C2.26619 240.239 65.2303 218.381 86.9103 202.379C107.67 194.538 121.468 153.884 125.771 134.537C125.771 134.537 128.822 108.39 155.479 80.199Z" fill="#FDF6DD"/>
<path d="M352.363 195.324C348.719 234.402 387.671 248.857 407.601 251.199L459.299 222.753L516.442 146.082L492.592 83.1896L399.949 46.7812C385.496 59.8561 354.77 89.826 347.493 105.107C337.61 115.359 344.85 142.918 349.707 155.416C349.707 155.416 357.993 171.552 352.363 195.324Z" fill="#FBBDBD"/>
</g>
<defs>
<clipPath id="clip0">
<rect width="400" height="500" fill="white"/>
</clipPath>
</defs>
</svg>
