<svg width="1100" height="250" viewBox="0 0 1100 250" fill="none" xmlns="http://www.w3.org/2000/svg">
<g clip-path="url(#clip0)">
<rect width="1100" height="250" fill="white"/>
<path d="M65.4097 160.571C49.1287 149.769 -10.1629 143.105 -37.7736 141.124L-63.0552 275.262L182.64 332.254L197.364 254.13C198.846 246.268 179.223 210.006 134.788 200.105C90.3529 190.204 85.7609 174.074 65.4097 160.571Z" fill="#F2EBA8"/>
<path d="M184.378 -68.3373C172.394 -68.1445 148.922 -49.3064 134.443 -36.0781C130.866 -32.8105 130.335 -27.4251 133.054 -23.4156L199.708 74.8682C202.667 79.2319 208.506 80.5482 213.051 77.8766L336.12 5.53995C341.1 2.6128 342.576 -3.90585 339.334 -8.68676L300.695 -65.662C296.205 -72.283 264.372 -89.3595 239.253 -74.1374C214.135 -58.9154 201.714 -68.6161 184.378 -68.3373Z" fill="#B2A8F2"/>
<path d="M837.133 51.8832C855.331 48.3041 887.818 8.20426 901.787 -11.3983L774 -141.957L609 -0.124393L683.425 75.9153C690.915 83.5671 736.882 98.5046 766.303 72.5173C795.724 46.53 814.384 56.357 837.133 51.8832Z" fill="#F1C0C0"/>
<path d="M1096.24 279.974C1102.64 277.816 1111.91 270.108 1121.51 260.607C1142.91 239.427 1140.57 205.088 1119.51 183.571L1108.92 172.754C1086.52 149.866 1050.09 148.608 1026.16 169.895L965.015 224.294C939.419 247.064 938.066 286.621 962.029 311.103L968.908 318.132C974.031 323.366 1009.4 329.742 1036.39 305.243C1063.38 280.745 1077.28 286.358 1096.24 279.974Z" fill="#A8F2D7"/>
<path d="M491.745 275.246C492.351 276.344 493.197 277.456 494.246 278.577C519.718 305.773 564.269 282.888 581.68 249.944C600.63 214.09 588.487 169.683 553.93 148.46L544.395 142.604C507.709 120.074 459.619 133.224 439.502 171.287C435.764 178.36 435.63 214.484 460.862 229.516C486.094 244.548 483.36 260.069 491.745 275.246Z" fill="#A8DCF2"/>
<path d="M1055.17 43.6292C1056.35 45.3801 1058.76 47.296 1061.84 49.228C1077.1 58.7836 1096.57 50.4123 1104.98 34.493C1114 17.438 1108.09 -3.68877 1091.53 -13.5927L1071.9 -25.3363C1054.04 -36.0237 1030.87 -29.5424 1021.14 -11.1382C1019.34 -7.73073 1020.84 10.5008 1035.74 19.1925C1050.64 27.8842 1049.77 35.6006 1055.17 43.6292Z" fill="#DFF2A8"/>
</g>
<defs>
<clipPath id="clip0">
<rect width="1100" height="250" fill="white"/>
</clipPath>
</defs>
</svg>
