<svg width="271" height="30" viewBox="0 0 271 30" fill="none" xmlns="http://www.w3.org/2000/svg">
<g filter="url(#filter0_ddd)">
<path d="M13.27 23.45C10.23 23.45 7.89004 22.52 6.25004 20.66C4.61004 18.8 3.79004 16.17 3.79004 12.77C3.79004 10.61 4.18004 8.75 4.96004 7.19C5.76004 5.61 6.91004 4.41 8.41004 3.59C9.91004 2.75 11.69 2.33 13.75 2.33C16.09 2.33 18.5 2.86 20.98 3.92C20.8 5.72 20.51 7.71 20.11 9.89L17.83 10.04L15.76 7.01C14.88 6.75 13.91 6.62 12.85 6.62C12.05 6.62 11.29 6.69 10.57 6.83C10.25 7.45 9.99004 8.27 9.79004 9.29C9.59004 10.31 9.49004 11.34 9.49004 12.38C9.49004 14.6 9.89004 16.25 10.69 17.33C11.51 18.39 12.8 18.94 14.56 18.98C15.26 18.98 16.14 18.88 17.2 18.68C18.28 18.46 19.33 18.18 20.35 17.84L21.28 21.14C20.24 21.82 18.98 22.38 17.5 22.82C16.04 23.24 14.63 23.45 13.27 23.45ZM24.6344 19.94L26.8244 19.34V7.91C26.8244 7.39 26.7844 7.05 26.7044 6.89C26.6244 6.71 26.4144 6.55 26.0744 6.41L24.5144 5.54L24.6944 3.08C27.6944 2.64 30.5844 2.42 33.3644 2.42C35.5244 2.42 37.2644 2.64 38.5844 3.08C39.9044 3.5 40.8644 4.17 41.4644 5.09C42.0844 5.99 42.3944 7.19 42.3944 8.69C42.3944 9.93 42.0744 11.02 41.4344 11.96C40.7944 12.88 39.8844 13.59 38.7044 14.09L43.5044 21.83L43.4744 23H38.0144L33.5744 14.99L32.2544 14.96V18.32C32.2544 18.8 32.2844 19.11 32.3444 19.25C32.4244 19.37 32.6044 19.51 32.8844 19.67L34.1744 20.42L34.0544 23H24.7844L24.6344 19.94ZM34.1744 11.6C35.2344 11.6 36.0144 11.5 36.5144 11.3C36.7144 10.58 36.8144 9.72 36.8144 8.72C36.8144 7.72 36.5944 7.01 36.1544 6.59C35.7344 6.17 35.0244 5.96 34.0244 5.96C33.4644 5.96 32.8944 5.99 32.3144 6.05V11.42C32.8344 11.54 33.4544 11.6 34.1744 11.6ZM48.9846 20.06L51.5646 19.34V15.38L46.0746 6.59L44.6946 4.88L44.8146 2.78H53.6046L53.9046 5.63L51.9546 6.17L55.1046 11.51L57.7146 7.1C57.7946 6.96 57.8346 6.82 57.8346 6.68C57.8346 6.46 57.7146 6.3 57.4746 6.2L55.7346 5.42L55.9446 2.78H63.5046L63.7146 5.6L62.5146 6.32L56.9946 14.42V18.14C56.9946 18.62 57.0246 18.93 57.0846 19.07C57.1646 19.21 57.3446 19.35 57.6246 19.49L59.4846 20.6L59.3646 23H49.1346L48.9846 20.06ZM66.9801 19.94L69.1701 19.34V7.91C69.1701 7.39 69.1301 7.05 69.0501 6.89C68.9701 6.71 68.7601 6.55 68.4201 6.41L66.8601 5.54L67.0401 3.11C68.5601 2.87 70.0001 2.7 71.3601 2.6C72.7201 2.48 74.1801 2.42 75.7401 2.42C77.9001 2.42 79.6301 2.65 80.9301 3.11C82.2501 3.57 83.2101 4.29 83.8101 5.27C84.4301 6.25 84.7401 7.55 84.7401 9.17C84.7401 11.27 83.9801 12.92 82.4601 14.12C80.9601 15.32 78.9001 15.92 76.2801 15.92L74.6301 15.86V18.14C74.6301 18.62 74.6601 18.93 74.7201 19.07C74.8001 19.21 74.9801 19.35 75.2601 19.49L77.0901 20.57L76.9701 23H67.1301L66.9801 19.94ZM76.5501 12.59C77.6301 12.59 78.4201 12.48 78.9201 12.26C79.1401 11.28 79.2501 10.25 79.2501 9.17C79.2501 7.99 79.0201 7.15 78.5601 6.65C78.1201 6.15 77.4001 5.9 76.4001 5.9C76.0601 5.9 75.4701 5.94 74.6301 6.02V12.41C75.1701 12.53 75.8101 12.59 76.5501 12.59ZM92.3934 20.06L95.0034 19.34V6.35L92.4834 6.56L90.2634 9.23L88.0734 9.05C88.0734 7.39 88.1534 5.3 88.3134 2.78H107.093C107.253 5.3 107.333 7.39 107.333 9.05L105.173 9.23L102.923 6.56L100.463 6.35V18.14C100.463 18.62 100.493 18.93 100.553 19.07C100.613 19.21 100.783 19.35 101.063 19.49L102.923 20.6L102.803 23H92.5434L92.3934 20.06ZM119.978 23.42C116.658 23.42 114.178 22.58 112.538 20.9C110.918 19.22 110.108 16.67 110.108 13.25C110.108 11.03 110.518 9.11 111.338 7.49C112.158 5.85 113.328 4.59 114.848 3.71C116.368 2.83 118.178 2.39 120.278 2.39C126.958 2.39 130.298 5.8 130.298 12.62C130.298 14.86 129.888 16.79 129.068 18.41C128.248 20.03 127.058 21.27 125.498 22.13C123.958 22.99 122.118 23.42 119.978 23.42ZM120.608 19.28C121.748 19.28 122.838 18.99 123.878 18.41C124.098 17.79 124.268 17.02 124.388 16.1C124.508 15.16 124.568 14.24 124.568 13.34C124.568 11.12 124.148 9.44 123.308 8.3C122.488 7.16 121.278 6.59 119.678 6.59C118.538 6.59 117.438 6.8 116.378 7.22C116.158 7.6 115.988 8.23 115.868 9.11C115.748 9.97 115.688 10.96 115.688 12.08C115.688 14.4 116.108 16.18 116.948 17.42C117.788 18.66 119.008 19.28 120.608 19.28ZM144.191 23.36C140.811 23.36 138.271 22.47 136.571 20.69C134.871 18.91 134.021 16.27 134.021 12.77C134.021 10.63 134.431 8.79 135.251 7.25C136.071 5.69 137.261 4.5 138.821 3.68C140.381 2.86 142.231 2.45 144.371 2.45C146.971 2.45 149.501 2.97 151.961 4.01C151.761 5.93 151.481 7.85 151.121 9.77L148.841 9.92L146.951 7.16C145.951 6.8 144.711 6.62 143.231 6.62C142.531 6.62 141.691 6.69 140.711 6.83C140.351 7.43 140.071 8.23 139.871 9.23C139.671 10.23 139.571 11.31 139.571 12.47C139.571 14.77 140.031 16.49 140.951 17.63C141.871 18.75 143.301 19.32 145.241 19.34C145.721 19.34 146.331 19.3 147.071 19.22V17.03C147.071 16.63 147.041 16.37 146.981 16.25C146.921 16.13 146.751 15.99 146.471 15.83L145.331 15.26L145.451 13.22L146.141 13.1C146.361 13.06 147.141 12.94 148.481 12.74C149.821 12.52 150.941 12.39 151.841 12.35C152.041 12.73 152.191 13.16 152.291 13.64V21.5C151.131 22.08 149.841 22.54 148.421 22.88C147.001 23.2 145.591 23.36 144.191 23.36ZM155.949 19.94L158.139 19.34V7.91C158.139 7.39 158.099 7.05 158.019 6.89C157.939 6.71 157.729 6.55 157.389 6.41L155.829 5.54L156.009 3.08C159.009 2.64 161.899 2.42 164.679 2.42C166.839 2.42 168.579 2.64 169.899 3.08C171.219 3.5 172.179 4.17 172.779 5.09C173.399 5.99 173.709 7.19 173.709 8.69C173.709 9.93 173.389 11.02 172.749 11.96C172.109 12.88 171.199 13.59 170.019 14.09L174.819 21.83L174.789 23H169.329L164.889 14.99L163.569 14.96V18.32C163.569 18.8 163.599 19.11 163.659 19.25C163.739 19.37 163.919 19.51 164.199 19.67L165.489 20.42L165.369 23H156.099L155.949 19.94ZM165.489 11.6C166.549 11.6 167.329 11.5 167.829 11.3C168.029 10.58 168.129 9.72 168.129 8.72C168.129 7.72 167.909 7.01 167.469 6.59C167.049 6.17 166.339 5.96 165.339 5.96C164.779 5.96 164.209 5.99 163.629 6.05V11.42C164.149 11.54 164.769 11.6 165.489 11.6ZM177.327 20.33L178.257 19.76L185.277 2.75L190.377 2.3L196.377 18.5C196.577 19.02 196.717 19.36 196.797 19.52C196.877 19.68 197.027 19.9 197.247 20.18L197.787 20.87L197.607 23H189.177L188.877 20.15L191.007 19.61L190.047 16.58L183.957 16.67L183.297 18.56C183.237 18.74 183.207 18.89 183.207 19.01C183.207 19.15 183.227 19.26 183.267 19.34C183.327 19.4 183.417 19.45 183.537 19.49L185.607 20.36L185.307 23H177.447L177.327 20.33ZM187.137 7.43L185.157 13.19L189.027 13.37L187.137 7.43ZM200.521 19.94L202.711 19.34V7.91C202.711 7.39 202.671 7.05 202.591 6.89C202.511 6.71 202.301 6.55 201.961 6.41L200.401 5.54L200.581 3.11C202.101 2.87 203.541 2.7 204.901 2.6C206.261 2.48 207.721 2.42 209.281 2.42C211.441 2.42 213.171 2.65 214.471 3.11C215.791 3.57 216.751 4.29 217.351 5.27C217.971 6.25 218.281 7.55 218.281 9.17C218.281 11.27 217.521 12.92 216.001 14.12C214.501 15.32 212.441 15.92 209.821 15.92L208.171 15.86V18.14C208.171 18.62 208.201 18.93 208.261 19.07C208.341 19.21 208.521 19.35 208.801 19.49L210.631 20.57L210.511 23H200.671L200.521 19.94ZM210.091 12.59C211.171 12.59 211.961 12.48 212.461 12.26C212.681 11.28 212.791 10.25 212.791 9.17C212.791 7.99 212.561 7.15 212.101 6.65C211.661 6.15 210.941 5.9 209.941 5.9C209.601 5.9 209.011 5.94 208.171 6.02V12.41C208.711 12.53 209.351 12.59 210.091 12.59ZM221.145 19.85L223.035 19.34V7.85C223.035 7.33 222.995 6.99 222.915 6.83C222.855 6.65 222.665 6.49 222.345 6.35L221.085 5.63L221.175 2.78H230.535L230.685 5.84L228.465 6.44V10.82L235.305 10.64V7.85C235.305 7.33 235.265 6.99 235.185 6.83C235.105 6.65 234.895 6.49 234.555 6.35L233.085 5.51L233.235 2.78H242.445L242.565 5.93L240.735 6.44V18.14C240.735 18.62 240.765 18.93 240.825 19.07C240.905 19.21 241.085 19.35 241.365 19.49L242.595 20.21L242.475 23H233.355L233.205 19.91L235.305 19.34V14.87L228.465 14.57V18.14C228.465 18.62 228.495 18.93 228.555 19.07C228.635 19.21 228.825 19.35 229.125 19.49L230.715 20.42L230.595 23H221.295L221.145 19.85ZM249.574 20.06L252.154 19.34V15.38L246.664 6.59L245.284 4.88L245.404 2.78H254.194L254.494 5.63L252.544 6.17L255.694 11.51L258.304 7.1C258.384 6.96 258.424 6.82 258.424 6.68C258.424 6.46 258.304 6.3 258.064 6.2L256.324 5.42L256.534 2.78H264.094L264.304 5.6L263.104 6.32L257.584 14.42V18.14C257.584 18.62 257.614 18.93 257.674 19.07C257.754 19.21 257.934 19.35 258.214 19.49L260.074 20.6L259.954 23H249.724L249.574 20.06Z" fill="#C0C0C0"/>
</g>
<defs>
<filter id="filter0_ddd" x="0.790039" y="0.299988" width="269.514" height="29.15" filterUnits="userSpaceOnUse" color-interpolation-filters="sRGB">
<feFlood flood-opacity="0" result="BackgroundImageFix"/>
<feColorMatrix in="SourceAlpha" type="matrix" values="0 0 0 0 0 0 0 0 0 0 0 0 0 0 0 0 0 0 127 0"/>
<feOffset dx="1" dy="2"/>
<feGaussianBlur stdDeviation="2"/>
<feColorMatrix type="matrix" values="0 0 0 0 0 0 0 0 0 0 0 0 0 0 0 0 0 0 0.3 0"/>
<feBlend mode="normal" in2="BackgroundImageFix" result="effect1_dropShadow"/>
<feColorMatrix in="SourceAlpha" type="matrix" values="0 0 0 0 0 0 0 0 0 0 0 0 0 0 0 0 0 0 127 0"/>
<feOffset dx="1" dy="2"/>
<feGaussianBlur stdDeviation="2"/>
<feColorMatrix type="matrix" values="0 0 0 0 0 0 0 0 0 0 0 0 0 0 0 0 0 0 0.25 0"/>
<feBlend mode="normal" in2="effect1_dropShadow" result="effect2_dropShadow"/>
<feColorMatrix in="SourceAlpha" type="matrix" values="0 0 0 0 0 0 0 0 0 0 0 0 0 0 0 0 0 0 127 0"/>
<feOffset dx="2" dy="2"/>
<feGaussianBlur stdDeviation="2"/>
<feColorMatrix type="matrix" values="0 0 0 0 0 0 0 0 0 0 0 0 0 0 0 0 0 0 0.25 0"/>
<feBlend mode="normal" in2="effect2_dropShadow" result="effect3_dropShadow"/>
<feBlend mode="normal" in="SourceGraphic" in2="effect3_dropShadow" result="shape"/>
</filter>
</defs>
</svg>
